<svg width="25" height="25" viewBox="0 0 25 25" fill="none" xmlns="http://www.w3.org/2000/svg">
<g filter="url(#filter0_i_2552_23)">
<path fill-rule="evenodd" clip-rule="evenodd" d="M0.0231728 19.736C0.0017109 22.05 1.86008 23.943 4.17395 23.9646L19.7354 24.1088C22.0493 24.1301 23.9425 22.2719 23.9639 19.9579L24.1082 4.39653C24.1297 2.08251 22.2713 0.189476 19.9574 0.167906L4.39593 0.0236513C2.08205 0.00237407 0.188905 1.86063 0.167447 4.17435L0.0231728 19.736ZM13.562 12.0799C13.5696 11.2537 12.9059 10.5776 12.0796 10.5698C11.2532 10.5623 10.577 11.2258 10.5694 12.0523C10.5617 12.8787 11.2254 13.5549 12.0518 13.5624C12.8782 13.5702 13.5543 12.9064 13.562 12.0799ZM16.6101 6.12265C17.4365 6.13044 18.1002 6.80661 18.0925 7.63279C18.0848 8.45927 17.4087 9.12306 16.5823 9.11527C15.756 9.10778 15.0922 8.43161 15.0999 7.60513C15.1076 6.77865 15.7837 6.11516 16.6101 6.12265ZM9.03147 16.5274C9.03913 15.7012 8.37544 15.025 7.54905 15.0172C6.72267 15.0097 6.04654 15.6732 6.03887 16.4997C6.03122 17.3262 6.69493 18.0023 7.5213 18.0098C8.34768 18.0176 9.02381 17.3538 9.03147 16.5274ZM7.6323 6.03937C8.45868 6.04716 9.12238 6.72333 9.11472 7.54951C9.10706 8.37599 8.43093 9.03978 7.60454 9.03199C6.77817 9.0245 6.11446 8.34833 6.12212 7.52185C6.12978 6.69537 6.80591 6.03188 7.6323 6.03937ZM18.0093 16.6106C18.0169 15.7845 17.3532 15.1083 16.5268 15.1005C15.7005 15.093 15.0243 15.7565 15.0167 16.583C15.009 17.4095 15.6727 18.0856 16.4991 18.0931C17.3255 18.1009 18.0016 17.4371 18.0093 16.6106Z" fill="#323F59" fill-opacity="0.8"/>
</g>
<defs>
<filter id="filter0_i_2552_23" x="0.0234375" y="0.0234375" width="24.085" height="27.0857" filterUnits="userSpaceOnUse" color-interpolation-filters="sRGB">
<feFlood flood-opacity="0" result="BackgroundImageFix"/>
<feBlend mode="normal" in="SourceGraphic" in2="BackgroundImageFix" result="shape"/>
<feColorMatrix in="SourceAlpha" type="matrix" values="0 0 0 0 0 0 0 0 0 0 0 0 0 0 0 0 0 0 127 0" result="hardAlpha"/>
<feOffset dy="3"/>
<feGaussianBlur stdDeviation="2.5"/>
<feComposite in2="hardAlpha" operator="arithmetic" k2="-1" k3="1"/>
<feColorMatrix type="matrix" values="0 0 0 0 0 0 0 0 0 0 0 0 0 0 0 0 0 0 0.25 0"/>
<feBlend mode="normal" in2="shape" result="effect1_innerShadow_2552_23"/>
</filter>
</defs>
</svg>